<svg xmlns="http://www.w3.org/2000/svg" xmlns:xlink="http://www.w3.org/1999/xlink" width="35" height="35" viewBox="0 0 35 35"><defs><clipPath id="a"><rect width="35" height="35" fill="none"/></clipPath></defs><g clip-path="url(#a)"><path d="M31.625,20.829H2.458a1.458,1.458,0,1,1,0-2.917H31.625a1.458,1.458,0,0,1,0,2.917" transform="translate(0.458 8.21)" fill="#273262"/><path d="M33.542,9.664H1.458a1.459,1.459,0,0,1-.566-2.8L16.934.114a1.464,1.464,0,0,1,1.132,0l16.04,6.748a1.458,1.458,0,0,1-.564,2.8M8.686,6.748H26.314L17.5,3.041Z" transform="translate(0)" fill="#273262"/><path d="M9.458,19.083A1.458,1.458,0,0,1,8,17.624V10.172a1.458,1.458,0,0,1,2.917,0v7.452a1.458,1.458,0,0,1-1.458,1.458" transform="translate(3.667 3.994)" fill="#02afa0"/><path d="M15.458,19.083A1.458,1.458,0,0,1,14,17.624V10.172a1.458,1.458,0,0,1,2.917,0v7.452a1.458,1.458,0,0,1-1.458,1.458" transform="translate(6.417 3.994)" fill="#02afa0"/><path d="M21.458,19.083A1.458,1.458,0,0,1,20,17.624V10.172a1.458,1.458,0,0,1,2.917,0v7.452a1.458,1.458,0,0,1-1.458,1.458" transform="translate(9.167 3.994)" fill="#02afa0"/><path d="M33.542,24.917H1.458a1.458,1.458,0,1,1,0-2.917H33.542a1.458,1.458,0,0,1,0,2.917" transform="translate(0 10.083)" fill="#273262"/><path d="M3.458,19.083A1.458,1.458,0,0,1,2,17.624V10.172a1.458,1.458,0,0,1,2.917,0v7.452a1.458,1.458,0,0,1-1.458,1.458" transform="translate(0.917 3.994)" fill="#02afa0"/></g></svg>