<svg xmlns="http://www.w3.org/2000/svg" xmlns:xlink="http://www.w3.org/1999/xlink" width="43" height="28" viewBox="0 0 43 28"><defs><clipPath id="a"><rect width="43" height="28" transform="translate(0 0.318)" fill="#29387d"/></clipPath></defs><g transform="translate(0.238 0.306)"><g transform="translate(-0.238 -0.624)" clip-path="url(#a)"><path d="M24.719,27.808H4.635A4.64,4.64,0,0,1,0,23.174V4.635A4.64,4.64,0,0,1,4.635,0H24.719a4.64,4.64,0,0,1,4.635,4.635V23.174a4.64,4.64,0,0,1-4.635,4.635M4.635,3.09A1.545,1.545,0,0,0,3.09,4.635V23.174a1.545,1.545,0,0,0,1.545,1.545H24.719a1.545,1.545,0,0,0,1.545-1.545V4.635A1.545,1.545,0,0,0,24.719,3.09Z" transform="translate(0.063 0.582)" fill="#273262"/><path d="M28.723,20.991a3.09,3.09,0,0,1-1.588-.446l-5.386-3.23A1.549,1.549,0,0,1,21,15.989V8.264a1.548,1.548,0,0,1,.749-1.324l5.386-3.23a3.089,3.089,0,0,1,4.68,2.648V17.895a3.107,3.107,0,0,1-3.091,3.1m0-3.1.008,0L28.725,6.358,24.09,9.14v5.974Z" transform="translate(11.506 2.36)" fill="#273262"/><path d="M17.119,6.4H17.1L10.531,6.34a1.545,1.545,0,0,1,.014-3.09h.014l6.574.059a1.545,1.545,0,0,1-.014,3.09" transform="translate(4.967 2.353)" fill="#02afa0"/></g></g></svg>