<svg xmlns="http://www.w3.org/2000/svg" xmlns:xlink="http://www.w3.org/1999/xlink" width="35.436" height="33.817" viewBox="0 0 35.436 33.817"><defs><clipPath id="a"><rect width="35.436" height="33.817" fill="#29387d"/></clipPath></defs><g clip-path="url(#a)"><path d="M26.893,26.848a1.476,1.476,0,0,1-1.476-1.476,7.61,7.61,0,0,0-7.6-7.6H10.554a7.609,7.609,0,0,0-7.6,7.6,1.477,1.477,0,0,1-2.954,0A10.566,10.566,0,0,1,10.554,14.817h7.263A10.565,10.565,0,0,1,28.37,25.372a1.476,1.476,0,0,1-1.476,1.476" transform="translate(0 6.968)" fill="#273262"/><path d="M12.443,17.476a8.738,8.738,0,1,1,8.738-8.738,8.749,8.749,0,0,1-8.738,8.738m0-14.524a5.786,5.786,0,1,0,5.786,5.786,5.792,5.792,0,0,0-5.786-5.786" transform="translate(1.742)" fill="#273262"/><path d="M26.3,22.163a1.476,1.476,0,0,1-1.476-1.476,4.858,4.858,0,0,0-4.852-4.852H17.754a1.477,1.477,0,1,1,0-2.954h2.223a7.814,7.814,0,0,1,7.8,7.806A1.476,1.476,0,0,1,26.3,22.163" transform="translate(7.655 6.058)" fill="#02afa0"/><path d="M17.543,15.629a1.476,1.476,0,0,1,0-2.952,3.587,3.587,0,0,0,0-7.174,1.476,1.476,0,0,1,0-2.952,6.539,6.539,0,0,1,0,13.078" transform="translate(7.556 1.2)" fill="#02afa0"/></g></svg>