<svg xmlns="http://www.w3.org/2000/svg" xmlns:xlink="http://www.w3.org/1999/xlink" width="35" height="35" viewBox="0 0 35 35"><defs><clipPath id="a"><rect width="35" height="35" transform="translate(0 -0.008)" fill="#02afa0"/></clipPath></defs><g transform="translate(0 0.617)"><g transform="translate(0 -0.609)" clip-path="url(#a)"><path d="M33.068,24.885H1.438a1.454,1.454,0,0,1,0-2.907H33.068a1.454,1.454,0,0,1,0,2.907" transform="translate(0 10.107)" fill="#02afa0"/><path d="M25.178,28.364a1.44,1.44,0,0,1-1.426-1.454V3.652H20.9V26.911a1.426,1.426,0,1,1-2.851,0V2.2A1.438,1.438,0,0,1,19.476.745h5.7A1.439,1.439,0,0,1,26.6,2.2V26.911a1.44,1.44,0,0,1-1.426,1.454" transform="translate(7.901 0.812)" fill="#273262"/><path d="M17.246,25.267a1.44,1.44,0,0,1-1.426-1.454V10.73H12.969V23.814a1.426,1.426,0,1,1-2.851,0V9.277a1.439,1.439,0,0,1,1.426-1.454h5.7a1.44,1.44,0,0,1,1.426,1.454V23.814a1.44,1.44,0,0,1-1.426,1.454" transform="translate(4.429 3.911)" fill="#273262"/><path d="M9.313,22.548a1.44,1.44,0,0,1-1.426-1.454V15.281H5.036v5.814a1.426,1.426,0,1,1-2.851,0V13.827a1.44,1.44,0,0,1,1.426-1.455h5.7a1.441,1.441,0,0,1,1.426,1.455v7.268a1.44,1.44,0,0,1-1.426,1.454" transform="translate(0.956 5.902)" fill="#273262"/><path d="M24.016,0l-2.978.45L17.952.92a.3.3,0,0,0-.194.459l.779,1.134L6.3,11.246H1.426a1.455,1.455,0,0,0,0,2.909H6.753a1.4,1.4,0,0,0,.817-.263l12.6-9L20.9,5.96a.285.285,0,0,0,.489-.029l1.485-2.8,1.435-2.7a.293.293,0,0,0-.3-.43" transform="translate(0 0.486)" fill="#02afa0"/></g></g></svg>