<?xml version="1.0" encoding="UTF-8"?>
<svg id="Layer_2" data-name="Layer 2" xmlns="http://www.w3.org/2000/svg" viewBox="0 0 28.08 35.69">
  <defs>
    <style>
      .cls-1 {
        fill: #1a098c;
      }
    </style>
  </defs>
  <g id="Layer_1-2" data-name="Layer 1">
    <path class="cls-1" d="m13.28,14.72l3.28-8.42c3.64.18,5.66,2.17,5.66,5.25h5.1c-.08-5.93-4.29-8.96-9.04-9.66l.74-1.89h-5.11L4.15,25.01h-.02v.05-.03S0,35.68,0,35.68h5.12l1.51-3.88c2.48,2.61,5.97,4.02,9.57,3.88,7.53,0,11.88-4.26,11.88-9.73,0-9.73-9.67-9.1-14.79-11.23Zm3.1,16.33c-4.33,0-7.01-2.43-7.29-5.58l2.34-6.01h0c5.1,1.8,11.45,1.58,11.45,6.87h0c0,2.95-2.62,4.72-6.5,4.72Z"/>
  </g>
</svg>